<svg xmlns="http://www.w3.org/2000/svg" viewBox="0 0 53.72 23.5"><defs><style>.cls-1{fill:#141618;}</style></defs><title>no-text=black</title><g id="Layer_2" data-name="Layer 2"><g id="Layer_1-2" data-name="Layer 1"><path class="cls-1" d="M36.57,17.56a2.12,2.12,0,0,1-3,0L21.26,5.15,3.65,22.86l-.06.06a2.12,2.12,0,0,1-3-.08,2.14,2.14,0,0,1,.08-3L19.77.61a2.12,2.12,0,0,1,3,0l13.8,13.87.06.06A2.14,2.14,0,0,1,36.57,17.56Zm3.8,5.93a2.13,2.13,0,1,1,2.12-2.13A2.13,2.13,0,0,1,40.37,23.49Zm13.36,0H46.52V0h7.21Z"/></g></g></svg>